<?xml version="1.0" encoding="UTF-8"?>
<svg xmlns="http://www.w3.org/2000/svg" xmlns:xlink="http://www.w3.org/1999/xlink" width="18pt" height="18pt" viewBox="0 0 18 18" version="1.1">
<g id="surface1">
<path style=" stroke:none;fill-rule:evenodd;fill:rgb(0%,50%,100%);fill-opacity:1;" d="M 0.0 15.0 L 0.0 18.0 L 3.0 18.0 Z M 0.0 15.0 "/>
<path style=" stroke:none;fill-rule:evenodd;fill:rgb(0%,80%,20%);fill-opacity:1;" d="M 0.0 15.0 L 3.0 18.0 L 9.0 18.0 L 0.0 9.0 Z M 0.0 15.0 "/>
<path style=" stroke:none;fill-rule:evenodd;fill:rgb(0%,80%,20%);fill-opacity:1;" d="M 0.0 0.0 L 0.0 3.0 L 15.0 18.0 L 18.0 18.0 L 18.0 15.0 L 3.0 0.0 Z M 0.0 0.0 "/>
<path style=" stroke:none;fill-rule:evenodd;fill:rgb(0%,50%,100%);fill-opacity:1;" d="M 3.0 0.0 L 18.0 15.0 L 18.0 9.0 L 9.0 0.0 Z M 3.0 0.0 "/>
<path style="fill:none;stroke-width:0.4;stroke-linecap:butt;stroke-linejoin:round;stroke:rgb(0%,0%,0%);stroke-opacity:1;stroke-miterlimit:10;" d="M 237.0 336.0 Z M 237.0 336.0 " transform="matrix(1,0,0,-1,-227.8,336.2)"/>
<path style=" stroke:none;fill-rule:evenodd;fill:rgb(0%,50%,100%);fill-opacity:1;" d="M 0.0 9.0 L 9.0 18.0 L 15.0 18.0 L 0.0 3.0 Z M 0.0 9.0 "/>
<path style=" stroke:none;fill-rule:evenodd;fill:rgb(0%,80%,20%);fill-opacity:1;" d="M 9.0 0.0 L 18.0 9.0 L 18.0 3.0 L 15.0 0.0 Z M 9.0 0.0 "/>
<path style="fill:none;stroke-width:0.4;stroke-linecap:butt;stroke-linejoin:round;stroke:rgb(0%,0%,0%);stroke-opacity:1;stroke-miterlimit:10;" d="M 249.0 336.0 Z M 249.0 336.0 " transform="matrix(1,0,0,-1,-227.8,336.2)"/>
<path style=" stroke:none;fill-rule:evenodd;fill:rgb(0%,50%,100%);fill-opacity:1;" d="M 15.0 0.0 L 18.0 0.0 L 18.0 3.0 Z M 15.0 0.0 "/>
</g>
</svg>
