<?xml version="1.0" encoding="UTF-8" standalone="no"?>
<svg
   xmlns:dc="http://purl.org/dc/elements/1.1/"
   xmlns:cc="http://creativecommons.org/ns#"
   xmlns:rdf="http://www.w3.org/1999/02/22-rdf-syntax-ns#"
   xmlns:svg="http://www.w3.org/2000/svg"
   xmlns="http://www.w3.org/2000/svg"
   xmlns:sodipodi="http://sodipodi.sourceforge.net/DTD/sodipodi-0.dtd"
   xmlns:inkscape="http://www.inkscape.org/namespaces/inkscape"
   version="1.1"
   width="57px"
   height="17px"
   id="svg3336"
   inkscape:version="0.91 r13725"
   sodipodi:docname="icons.svg">
  <metadata
     id="metadata3364">
    <rdf:RDF>
      <cc:Work
         rdf:about="">
        <dc:format>image/svg+xml</dc:format>
        <dc:type
           rdf:resource="http://purl.org/dc/dcmitype/StillImage" />
      </cc:Work>
    </rdf:RDF>
  </metadata>
  <defs
     id="defs3362" />
  <sodipodi:namedview
     pagecolor="#ffffff"
     bordercolor="#666666"
     borderopacity="1"
     objecttolerance="10"
     gridtolerance="10"
     guidetolerance="10"
     inkscape:pageopacity="0"
     inkscape:pageshadow="2"
     inkscape:window-width="640"
     inkscape:window-height="480"
     id="namedview3360"
     showgrid="false"
     inkscape:zoom="15.482456"
     inkscape:cx="48.255939"
     inkscape:cy="9.9978395"
     inkscape:window-x="0"
     inkscape:window-y="0"
     inkscape:window-maximized="1"
     inkscape:current-layer="svg3336" />
  <style
     type="text/css"
     id="style3338">
#background {
  fill: none;
}
.shield {
  fill: #00f;
  stroke: #fff;
  stroke-width: 1px;
}
.mark {
  fill: #fff;
  font-family: sans-serif;
  font-size: 9pt;
  font-weight: bold;
  text-anchor: middle;
}
#gear {
  fill:#fff;
}
  </style>
  <rect
     id="background"
     width="57"
     height="17"
     x="0"
     y="0" />
  <g
     transform="translate(0.5, 0.5)"
     id="g3341">
    <g
       class="comment"
       transform="translate(0, 0)"
       id="g3343">
      <circle
         class="shield"
         r="8"
         cx="8"
         cy="8"
         id="circle3345" />
      <text
         class="mark"
         x="8"
         y="12.75"
         id="text3347">?</text>
    </g>
    <g
       class="mutator"
       transform="translate(20, 0)"
       id="g3349">
      <rect
         class="shield"
         width="16"
         height="16"
         rx="4"
         ry="4"
         id="rect3351" />
      <path
         id="gear"
         transform="scale(.6, .6) translate(2.9, 2.8)"
         d="M4.105,9.36C4.04,9.731,4,10.11,4,10.5s0.04,0.77,0.105,1.14l-1.534,1.129l-0.183,0.683l1.5,2.598         l0.684,0.184l1.738-0.762c0.581,0.49,1.25,0.875,1.979,1.138L8.5,18.5L9,19h3l0.5-0.499l0.211-1.896         c0.727-0.264,1.394-0.648,1.975-1.137l1.744,0.764l0.682-0.184l1.5-2.598l-0.184-0.684l-1.534-1.129C16.96,11.269,17,10.889,17,10.5         s-0.04-0.769-0.106-1.139l1.534-1.129l0.184-0.684l-1.5-2.598L16.43,4.768l-1.744,0.764c-0.58-0.488-1.248-0.873-1.975-1.137         L12.5,2.499L12,2H9L8.5,2.5L8.29,4.392C7.561,4.654,6.892,5.04,6.311,5.529L4.572,4.768L3.889,4.951L2.39,7.549L2.57,8.231         L4.105,9.36z M6.85,10.5c0-2.016,1.635-3.65,3.65-3.65s3.65,1.635,3.65,3.65s-1.635,3.65-3.65,3.65S6.85,12.516,6.85,10.5z" />
    </g>
    <g
       class="warning"
       transform="translate(40, 0)"
       id="g3354">
      <path
         class="shield"
         d="M 2,15 Q -1,15 0.5,12 L 6.5,1.7 Q 8,-1 9.5,1.7 L 15.5,12 Q 17,15 14,15 z"
         id="path3356" />
      <text
         class="mark"
         x="8"
         y="13"
         id="text3358">!</text>
    </g>
  </g>
  <path
     style="fill:#000000"
     d="m 47.62895,10.874285 c -0.02763,-0.18333 -0.236688,-5.0078227 -0.233697,-5.393201 0.0011,-0.144965 0.0039,-0.1453258 1.099145,-0.1453258 l 1.098017,0 0.0019,0.209915 c 0.001,0.1154533 -0.04823,1.4088527 -0.109478,2.874221 l -0.111367,2.6643058 -0.856434,0 -0.856434,0 -0.03164,-0.209915 z"
     id="path3368"
     inkscape:connector-curvature="0" />
  <path
     style="fill:#ffffff"
     d="m 47.396381,12.76352 0,-0.710481 1.098017,0 1.098017,0 0,0.710481 0,0.710482 -1.098017,0 -1.098017,0 0,-0.710482 z"
     id="path3370"
     inkscape:connector-curvature="0" />
  <path
     style="fill:#000000"
     d="m 41.744823,14.899752 c -0.106572,-0.02627 -0.286876,-0.09627 -0.400675,-0.155558 -0.373215,-0.194434 -0.402592,-0.719626 -0.08528,-1.524645 0.241026,-0.611487 6.466701,-11.2337724 6.764852,-11.5422317 0.441571,-0.4568381 0.749917,-0.3685317 1.236936,0.3542422 0.389558,0.5781358 6.265835,10.6974885 6.437806,11.0863455 0.08513,0.192491 0.18872,0.534184 0.230202,0.759317 0.09294,0.504382 -0.0038,0.743879 -0.375044,0.928297 -0.234897,0.116694 -0.522154,0.12216 -6.930041,0.131869 -3.676742,0.0056 -6.772181,-0.01136 -6.878753,-0.03764 z m 7.898084,-2.120084 -0.0182,-0.758924 -1.130312,0 -1.130312,0 -0.01854,0.673821 c -0.01019,0.370601 -0.0038,0.712116 0.01412,0.758923 0.0253,0.06594 0.288076,0.0851 1.167045,0.0851 l 1.134389,0 -0.0182,-0.758923 z m -0.218472,-1.840794 c 0.02998,-0.198876 0.23609,-5.0124527 0.233697,-5.45779 l -0.0011,-0.209915 -1.162606,0 c -1.162519,0 -1.162606,1.09e-5 -1.162901,0.1453257 -6.67e-4,0.3288638 0.198234,4.8313903 0.23254,5.2640223 l 0.03713,0.468272 0.895812,0 0.895812,0 0.03164,-0.209915 z"
     id="path3372"
     inkscape:connector-curvature="0" />
  <path
     style="fill:#000000"
     d="m 47.416279,12.76352 0,-0.710481 1.098017,0 1.098017,0 0,0.710481 0,0.710482 -1.098017,0 -1.098017,0 0,-0.710482 z"
     id="path3374"
     inkscape:connector-curvature="0" />
  <path
     style="fill:#ffffff"
     d="m 41.495428,14.770927 c -0.324261,-0.148512 -0.408894,-0.289402 -0.408894,-0.680695 0,-0.602922 0.190781,-0.971656 2.958853,-5.7187798 2.217758,-3.8033601 3.819768,-6.4572757 4.048598,-6.7069724 0.371745,-0.4056438 0.696129,-0.2914612 1.157988,0.4076101 0.488203,0.7389445 5.789693,9.8673121 6.284295,10.8206091 0.322887,0.622332 0.468422,1.269417 0.351577,1.563195 -0.03818,0.09599 -0.165126,0.226783 -0.282105,0.290651 -0.200379,0.109404 -0.607122,0.11704 -7.026854,0.131921 -6.587656,0.01527 -6.823116,0.0117 -7.083458,-0.107539 z m 8.167377,-1.991259 -0.0182,-0.758924 -1.136883,-0.0176 -1.136882,-0.0176 -0.03718,0.623183 c -0.02045,0.342751 -0.01094,0.692186 0.02112,0.776522 l 0.0583,0.153339 1.13396,0 1.13396,0 -0.0182,-0.758923 z m -0.216481,-1.905383 c 0.04081,-0.313844 0.230579,-4.5950348 0.230579,-5.2018212 l 0,-0.4012948 -1.158795,0 c -0.637336,0 -1.172754,0.022588 -1.189817,0.050195 -0.02829,0.045772 0.08453,2.9929025 0.191555,5.0039126 l 0.04383,0.823512 0.923479,0 0.923479,0 0.03569,-0.274504 z"
     id="path3394"
     inkscape:connector-curvature="0" />
  <path
     style="fill:#ffffff"
     d=""
     id="path3396"
     inkscape:connector-curvature="0" />
  <path
     style="fill:#ffffff"
     d="m 41.5657,14.760938 c -0.318845,-0.09258 -0.432206,-0.26649 -0.427304,-0.655534 0.0058,-0.45801 0.12253,-0.760642 0.704607,-1.826303 1.025956,-1.878311 5.248099,-9.0450626 5.973851,-10.1401379 0.188211,-0.283988 0.422131,-0.560107 0.519822,-0.6135977 0.39923,-0.2185981 0.587655,0.019136 2.217972,2.7983848 2.364931,4.031567 4.62393,7.9629828 4.945807,8.6073618 0.257702,0.515904 0.332601,0.738373 0.358799,1.065722 0.04377,0.546983 -0.07143,0.703853 -0.568739,0.77447 -0.493112,0.07002 -13.481748,0.06021 -13.724815,-0.01037 z m 8.123596,-1.994506 -0.0199,-0.772404 -1.151846,-0.01894 -1.151846,-0.01894 -0.03874,0.322946 c -0.04952,0.412801 -0.04913,0.927689 8.48e-4,1.114164 0.03857,0.143928 0.05021,0.145327 1.210166,0.145448 l 1.17122,1.29e-4 -0.0199,-0.772403 0,-7e-6 z m -0.239337,-1.698379 c 0.04485,-0.132372 0.163062,-2.5508035 0.20678,-4.2305951 l 0.04076,-1.5662889 -1.213463,0 -1.213463,0 0.04287,1.049575 c 0.12121,2.9675214 0.171803,4.057493 0.205364,4.424363 l 0.03693,0.403682 0.93343,0 c 0.689093,0 0.940592,-0.02113 0.960789,-0.08074 z"
     id="path3398"
     inkscape:connector-curvature="0" />
  <path
     style="fill:#ffffff"
     d="m 41.5657,14.760938 c -0.334689,-0.09718 -0.433643,-0.263334 -0.427206,-0.717317 0.005,-0.355777 0.04975,-0.489081 0.395628,-1.179694 0.53775,-1.073723 3.87558,-6.8168146 5.614076,-9.6596136 0.834841,-1.3651379 1.129074,-1.7439093 1.354684,-1.7439093 0.203826,0 0.488376,0.2803102 0.83709,0.8246173 0.36511,0.5698979 3.116136,5.2724911 4.826366,8.2501706 1.442016,2.510693 1.651103,2.939106 1.693597,3.470133 0.04302,0.537616 -0.0745,0.695701 -0.56942,0.765979 -0.493112,0.07002 -13.481748,0.06021 -13.724815,-0.01037 z m 8.111203,-1.997418 0,-0.775071 -1.153828,0 -1.153826,0 -0.04107,0.299667 c -0.06172,0.450318 -0.04948,0.984914 0.02579,1.125543 0.06219,0.116196 0.145746,0.124932 1.1949,0.124932 l 1.12804,0 0,-0.775071 z M 49.45258,10.987316 c 0.04704,-0.213614 0.157789,-2.4798466 0.202796,-4.1498581 l 0.04221,-1.5662889 -1.213068,0 -1.213068,0 0.04273,1.0172804 c 0.0235,0.5595043 0.07014,1.6712465 0.103648,2.4705383 0.03351,0.7992917 0.07867,1.6666853 0.100353,1.9275433 l 0.03943,0.474285 0.933263,-0.02216 c 0.871384,-0.02069 0.93515,-0.03073 0.961711,-0.151339 z"
     id="path3400"
     inkscape:connector-curvature="0" />
  <path
     style="fill:#ffffff"
     d="m 41.5657,14.760938 c -0.330861,-0.09607 -0.433626,-0.264582 -0.427439,-0.700908 0.0087,-0.61527 0.200949,-0.985432 3.037938,-5.8500508 1.685651,-2.8904049 3.295053,-5.5772195 3.702209,-6.1806493 0.270237,-0.4005062 0.466012,-0.5689258 0.661331,-0.5689258 0.329093,0 0.726392,0.6156325 3.688926,5.7161473 3.361657,5.7876736 3.580961,6.2000856 3.63127,6.8287736 0.04183,0.522731 -0.07488,0.689412 -0.535662,0.765036 -0.437588,0.07182 -13.509617,0.06286 -13.758573,-0.0094 z m 8.111203,-1.997418 0,-0.775071 -1.15361,0 -1.153609,0 -0.04073,0.339094 c -0.05859,0.487797 -0.05116,0.855207 0.02114,1.04537 l 0.06299,0.165678 1.13191,0 1.131911,0 0,-0.775071 z m -0.24875,-1.733401 c 0.05264,-0.05378 0.171558,-2.2827258 0.227123,-4.2572503 l 0.04226,-1.5016997 -1.212529,0 -1.21253,0 0.04248,0.9849858 c 0.02336,0.5417422 0.06995,1.6389518 0.103523,2.4382436 0.03357,0.7992918 0.07922,1.6820666 0.101432,1.9617206 l 0.04039,0.508464 0.912975,-0.04583 c 0.502137,-0.02521 0.931831,-0.06509 0.954877,-0.08863 z"
     id="path3402"
     inkscape:connector-curvature="0" />
  <path
     style="fill:#ffffff"
     d="m 41.5657,14.760938 c -0.331477,-0.09625 -0.433629,-0.264387 -0.427402,-0.703496 0.0087,-0.614251 0.205594,-0.995397 2.920468,-5.6536951 1.618565,-2.7772029 3.431557,-5.8037632 3.81845,-6.374417 0.441417,-0.6510761 0.653053,-0.7102165 1.051835,-0.2939303 0.305224,0.3186219 1.784851,2.7906638 4.667841,7.7986589 2.101635,3.6507135 2.215385,3.8756705 2.263446,4.4762855 0.04139,0.517219 -0.07669,0.684625 -0.536065,0.760017 -0.437588,0.07182 -13.509617,0.06286 -13.758573,-0.0094 z m 8.111203,-1.997418 0,-0.775071 -1.15361,0 -1.153609,0 -0.04073,0.339094 c -0.05859,0.487797 -0.05116,0.855207 0.02114,1.04537 l 0.06299,0.165678 1.13191,0 1.131911,0 0,-0.775071 z m -0.250101,-1.760751 c 0.0223,-0.03417 0.0597,-0.429474 0.0831,-0.878451 0.09615,-1.8445469 0.16424,-3.5680679 0.165577,-4.1911094 l 0.0014,-0.6620396 -1.201616,0 -1.201615,0 0.0419,0.9526912 c 0.02305,0.5239802 0.06942,1.5921246 0.10305,2.3736544 0.03363,0.7815297 0.07888,1.6735614 0.100545,1.9822924 l 0.0394,0.56133 0.913842,-0.03812 c 0.502614,-0.02097 0.932091,-0.06608 0.954394,-0.100249 z"
     id="path3404"
     inkscape:connector-curvature="0" />
  <path
     style="fill:#ffffff"
     d="m 41.5657,14.760938 c -0.337508,-0.098 -0.445782,-0.276128 -0.435653,-0.716719 0.01376,-0.598636 0.292565,-1.133729 3.056675,-5.8665345 1.688199,-2.8905927 3.221867,-5.4498309 3.626114,-6.05091 0.507508,-0.7546192 0.702739,-0.8230553 1.116215,-0.3912761 0.322845,0.3371366 2.117166,3.3442081 5.173702,8.6705146 1.462936,2.549306 1.71435,3.064073 1.757038,3.597518 0.04199,0.524701 -0.07423,0.691125 -0.535518,0.76683 -0.437588,0.07182 -13.509617,0.06286 -13.758573,-0.0094 z m 8.111203,-1.997418 0,-0.775071 -1.155884,0 -1.155884,0 -0.04528,0.511553 c -0.04005,0.452482 -0.01014,0.844571 0.07554,0.990147 0.01568,0.02664 0.535436,0.04844 1.155011,0.04844 l 1.1265,0 0,-0.775071 z m -0.265801,-1.79575 c 0.06261,-0.11824 0.175121,-2.1152306 0.24362,-4.3240798 l 0.04256,-1.3725212 -1.205092,0 -1.205092,0 8.8e-4,0.1453257 c 0.0019,0.3213102 0.191792,4.513862 0.230322,5.0864023 l 0.04129,0.613598 0.896727,-0.01955 c 0.764924,-0.01667 0.905259,-0.03566 0.954778,-0.129178 z"
     id="path3406"
     inkscape:connector-curvature="0" />
  <path
     style="fill:#ffffff"
     d="m 41.5657,14.761806 c -0.339871,-0.100168 -0.44579,-0.27663 -0.435471,-0.725497 0.008,-0.349252 0.05859,-0.494053 0.43221,-1.237837 0.584758,-1.164101 4.318796,-7.5816941 5.782927,-9.9389625 0.687941,-1.107595 0.92812,-1.3991054 1.15274,-1.3991054 0.363078,0 0.666238,0.4506551 3.084935,4.5858357 1.837241,3.1410798 3.671677,6.3660962 3.957991,6.9583162 0.263168,0.544347 0.29701,0.664462 0.300363,1.066099 0.0035,0.423138 -0.0081,0.461588 -0.178551,0.59003 l -0.18233,0.137396 -6.857896,0.01119 c -3.957236,0.0065 -6.942076,-0.01362 -7.056918,-0.04747 z m 8.111203,-1.998286 0,-0.775071 -1.154967,0 -1.154967,0 -0.04557,0.5471 c -0.03013,0.361722 -0.02008,0.624344 0.02966,0.77507 l 0.07524,0.227972 1.125303,0 1.125303,0 0,-0.775071 z m -0.284839,-1.760216 c 0.07832,-0.07876 0.284839,-3.8784376 0.284839,-5.2406901 l 0,-0.4914449 -1.200099,0 -1.200099,0 0.03986,0.8558073 c 0.02193,0.4706941 0.08239,1.7522569 0.134377,2.847917 0.05198,1.0956597 0.09445,2.0257447 0.09438,2.0668557 -1.29e-4,0.08451 1.760932,0.04784 1.846739,-0.03844 z"
     id="path3408"
     inkscape:connector-curvature="0" />
  <path
     style="fill:#ffffff"
     d="m 41.5657,14.761666 c -0.338175,-0.09943 -0.445779,-0.276967 -0.435624,-0.718734 0.0075,-0.324746 0.06226,-0.498565 0.332192,-1.053755 0.470078,-0.96685 2.759892,-4.9396504 4.951022,-8.5899627 1.62633,-2.7093861 1.789215,-2.9388102 2.086474,-2.9388102 0.261701,0 0.63499,0.4496439 1.316854,1.586211 1.660173,2.7672659 5.21923,8.9378339 5.664585,9.8210609 0.4577,0.90771 0.521861,1.541683 0.181638,1.79477 -0.182318,0.135624 -0.182913,0.135636 -7.040227,0.146686 -3.94457,0.0064 -6.942439,-0.01381 -7.056914,-0.04747 z m 8.111203,-1.998146 0,-0.775071 -1.15332,0 -1.15332,0 -0.04332,0.519488 c -0.02587,0.310206 -0.0156,0.622453 0.0255,0.775071 l 0.06882,0.255583 1.127821,0 1.127823,0 0,-0.775071 z m -0.408895,-1.718666 c 0.110476,-0.02963 0.14795,-0.101172 0.177162,-0.338212 0.04748,-0.385296 0.150802,-2.4469911 0.206847,-4.127541 l 0.04362,-1.307932 -1.209221,0 -1.209222,0 0.03989,0.7912181 c 0.05932,1.176569 0.228373,4.8268919 0.228373,4.9312649 0,0.07279 0.15516,0.09037 0.791218,0.08967 0.43517,-5.16e-4 0.85427,-0.01779 0.931332,-0.03846 z"
     id="path3410"
     inkscape:connector-curvature="0" />
  <path
     style="fill:#ffffff"
     d="m 41.5657,14.761666 c -0.334219,-0.09827 -0.446161,-0.278915 -0.440297,-0.710532 0.0079,-0.58418 0.369027,-1.279654 3.049492,-5.8734495 1.201808,-2.0596646 2.859555,-4.8397855 3.389202,-5.6838526 0.715706,-1.1405782 0.936664,-1.256464 1.397488,-0.7329402 0.360024,0.409008 2.096127,3.3214733 5.066247,8.4990733 1.692924,2.951153 1.878006,3.348884 1.838257,3.950314 -0.01713,0.259152 -0.05393,0.341012 -0.203248,0.452125 l -0.182333,0.135677 -6.857894,0.01105 c -3.94457,0.0064 -6.942439,-0.01381 -7.056914,-0.04747 z m 8.111203,-1.998146 0,-0.775071 -1.162607,0 -1.162606,0 -0.0142,0.371389 c -0.02164,0.566169 -0.01292,0.806605 0.0363,1.001133 l 0.04494,0.17762 1.129081,0 1.129082,0 0,-0.775071 z m -0.364262,-1.761621 c 0.09085,-0.06643 0.124063,-0.243911 0.172241,-0.920396 0.06684,-0.9385511 0.192021,-3.8201486 0.192021,-4.4203004 l 0,-0.3900336 -1.198792,0 -1.198792,0 0.03902,0.7589235 c 0.06065,1.1797141 0.227121,4.7941035 0.227121,4.9312655 0,0.114336 0.05728,0.122842 0.827315,0.122842 0.568291,0 0.862554,-0.02577 0.939868,-0.0823 z"
     id="path3412"
     inkscape:connector-curvature="0" />
  <path
     style="fill:#ffffff"
     d="m 41.5657,14.761524 c -0.335844,-0.09851 -0.446168,-0.278226 -0.440206,-0.717101 0.0046,-0.341842 0.05439,-0.484583 0.431185,-1.237344 0.614548,-1.227731 4.031115,-7.1100646 5.72752,-9.8611225 1.002131,-1.6251534 1.179693,-1.750474 1.678035,-1.1843279 0.352137,0.4000485 1.875616,2.9460343 4.670229,7.8047245 2.090444,3.6344289 2.26811,4.0016269 2.232693,4.6145179 -0.01689,0.29229 -0.04818,0.366767 -0.202319,0.481492 l -0.182337,0.135718 -6.857889,0.01091 c -3.931657,0.0063 -6.942811,-0.014 -7.056911,-0.04747 z m 8.111203,-1.998004 0,-0.775071 -1.162607,0 -1.162606,0 0,0.672905 c 0,0.370097 0.01764,0.718879 0.03921,0.77507 0.03367,0.08774 0.197794,0.102167 1.162606,0.102167 l 1.123402,0 0,-0.775071 z m -0.430864,-1.739714 c 0.135943,-0.05169 0.16462,-0.114555 0.198868,-0.435977 0.04609,-0.432516 0.141848,-2.3465247 0.205413,-4.1056119 l 0.04376,-1.2110481 -1.207811,0 -1.207811,0 0.03797,0.6620396 c 0.02088,0.3641218 0.08294,1.6489679 0.137899,2.8552137 0.05496,1.2062453 0.1142,2.2162597 0.131638,2.2444757 0.04453,0.07204 1.467168,0.06425 1.660075,-0.0091 z"
     id="path3414"
     inkscape:connector-curvature="0" />
  <path
     style="fill:#ffffff"
     d="m 41.506339,14.741323 c -0.310253,-0.135955 -0.386576,-0.275086 -0.38088,-0.694317 0.0044,-0.321837 0.05871,-0.487505 0.366918,-1.118678 0.863216,-1.767769 6.104572,-10.6503699 6.623193,-11.2244207 0.472233,-0.5227062 0.701443,-0.3201267 1.905765,1.6843533 1.365353,2.2724999 4.5285,7.7360654 5.353046,9.2460814 0.545168,0.998383 0.653022,1.756669 0.288452,2.028021 -0.182314,0.135698 -0.183363,0.13572 -7.072522,0.149799 -5.57587,0.0114 -6.927145,-0.0021 -7.083972,-0.07084 z m 8.170564,-1.977803 0,-0.775071 -1.162607,0 -1.162606,0 0,0.650139 c 0,0.357576 0.03009,0.706358 0.06686,0.775071 0.06207,0.11598 0.14538,0.124932 1.162606,0.124932 l 1.095745,0 0,-0.775071 z m -0.325528,-1.804291 c 0.101476,-0.164245 0.18311,-1.3980353 0.298358,-4.5093065 l 0.04366,-1.1787535 -1.207045,0 -1.207045,0 0.03739,0.5974504 c 0.02057,0.3285977 0.0658,1.265949 0.10052,2.0830028 0.107079,2.5198758 0.143377,3.0333048 0.218218,3.0867408 0.03932,0.02808 0.428611,0.04261 0.865087,0.03229 0.604405,-0.01428 0.807243,-0.04085 0.850851,-0.111429 z"
     id="path3416"
     inkscape:connector-curvature="0" />
  <path
     style="fill:#ffffff"
     d="m 41.562833,14.786276 c -0.07551,-0.01505 -0.205999,-0.100497 -0.289965,-0.189875 -0.126473,-0.134626 -0.15178,-0.227686 -0.147503,-0.542429 0.0077,-0.568336 0.270513,-1.090677 2.403965,-4.7782705 2.505651,-4.3309256 4.279987,-7.254544 4.615683,-7.6053824 0.282827,-0.2955833 0.48253,-0.2794504 0.799525,0.064589 0.553677,0.6009163 6.406053,10.6652017 6.780884,11.6610347 0.219785,0.583915 0.195553,1.074194 -0.06259,1.266383 l -0.182342,0.135755 -6.89018,0.0078 c -3.789598,0.0043 -6.951963,-0.0045 -7.027478,-0.01959 z m 8.11407,-2.022756 0,-0.775071 -1.162607,0 -1.162606,0 0,0.673574 c 0,0.526221 0.0222,0.695777 0.101498,0.775071 0.08403,0.08403 0.284081,0.101497 1.162606,0.101497 l 1.061109,0 0,-0.775071 z M 49.35278,10.956926 c 0.09129,-0.147708 0.185123,-1.5838459 0.296588,-4.5392981 l 0.04324,-1.1464589 -1.206122,0 -1.206122,0 0.03646,0.5328612 c 0.02005,0.2930736 0.08256,1.5646742 0.138898,2.825779 0.0646,1.4459448 0.129118,2.3254488 0.174668,2.3809858 0.102097,0.124482 1.641925,0.07632 1.722389,-0.05387 z"
     id="path3418"
     inkscape:connector-curvature="0" />
  <path
     style="fill:#ffffff"
     d="m 41.562833,14.785845 c -0.07551,-0.01482 -0.206308,-0.10053 -0.290651,-0.190473 -0.128301,-0.136818 -0.152172,-0.226422 -0.146123,-0.548507 0.0062,-0.331882 0.06057,-0.493686 0.39403,-1.173253 0.887372,-1.808419 6.014932,-10.5033383 6.56372,-11.1302481 0.332404,-0.3797244 0.518096,-0.3802798 0.866238,-0.00259 0.5525,0.5993912 6.39129,10.6347511 6.764643,11.6266601 0.100848,0.26793 0.162779,0.565807 0.162779,0.782943 0,0.321539 -0.01784,0.364084 -0.216011,0.51524 l -0.216012,0.16476 -6.872657,-0.0088 c -3.779961,-0.0048 -6.934441,-0.02092 -7.009956,-0.03574 z m 8.11407,-2.022325 0,-0.775071 -1.162607,0 -1.162606,0 8.82e-4,0.597451 c 0.001,0.693764 0.03665,0.870476 0.183367,0.909445 0.05852,0.01554 0.564179,0.03163 1.123683,0.03575 l 1.017281,0.0075 0,-0.775071 z m -0.354515,-1.830864 c 0.121896,-0.166702 0.193706,-1.1749405 0.326174,-4.5796173 l 0.04209,-1.0818697 -1.206215,0 -1.206216,0 0.03693,0.5005665 c 0.02031,0.2753117 0.08352,1.5167965 0.140468,2.7588556 0.05694,1.2420587 0.130152,2.3282949 0.162683,2.4138589 0.05885,0.154789 0.06308,0.155431 0.840803,0.127702 0.645039,-0.023 0.795922,-0.04738 0.863279,-0.139496 z"
     id="path3420"
     inkscape:connector-curvature="0" />
  <path
     style="fill:#ffffff"
     d="m 41.570954,14.784141 c -0.209124,-0.05059 -0.414833,-0.281273 -0.458529,-0.514195 -0.09302,-0.495815 0.229226,-1.198731 1.822023,-3.974435 1.639285,-2.8567187 4.313743,-7.3618493 4.823161,-8.1246253 0.540446,-0.8092356 0.780701,-0.8873118 1.218974,-0.3961323 0.362125,0.4058394 2.228786,3.5286482 4.831171,8.0822513 1.956494,3.4234353 2.069715,3.6581653 2.069715,4.2909173 0,0.309331 -0.02209,0.366616 -0.198723,0.515239 l -0.198723,0.167215 -6.889946,-0.0075 c -3.78947,-0.0041 -6.948075,-0.02155 -7.019123,-0.03874 z m 8.105949,-2.020621 0,-0.775071 -1.162607,0 -1.162606,0 0,0.540935 c 0,0.727332 0.04588,0.931013 0.217284,0.96459 0.07588,0.01486 0.581201,0.03098 1.122943,0.03582 l 0.984986,0.0088 0,-0.775071 z m -0.351479,-1.835015 c 0.11364,-0.155412 0.170824,-0.9772608 0.322855,-4.6400556 l 0.04222,-1.0172804 -1.203212,0 -1.203213,0 0.03491,0.5005665 c 0.0192,0.2753117 0.07828,1.4597167 0.131294,2.6320114 0.10276,2.2723731 0.129039,2.5534381 0.246433,2.6356821 0.04114,0.02883 0.406804,0.03977 0.812577,0.02433 0.590506,-0.02248 0.753411,-0.04947 0.816135,-0.135253 z"
     id="path3422"
     inkscape:connector-curvature="0" />
  <path
     style="fill:#ffffff"
     d="m 41.570954,14.784141 c -0.209124,-0.05059 -0.414833,-0.281273 -0.458529,-0.514195 -0.09598,-0.511643 0.221174,-1.194497 1.953672,-4.206326 2.507147,-4.3585035 4.626283,-7.8722712 5.017712,-8.3199323 0.341741,-0.3908368 0.52169,-0.384667 0.892774,0.03061 0.375248,0.4199371 2.984919,4.8049626 5.444527,9.1484292 1.334156,2.356011 1.456359,2.627362 1.456359,3.233832 0,0.299686 -0.02325,0.358948 -0.198723,0.506602 l -0.198723,0.167215 -6.889946,-0.0075 c -3.78947,-0.0041 -6.948075,-0.02155 -7.019123,-0.03874 z m 8.105949,-2.020621 0,-0.775071 -1.162607,0 -1.162606,0 0.0064,0.565156 c 0.0085,0.745919 0.04925,0.877762 0.287094,0.928767 0.104988,0.02251 0.605066,0.04437 1.111284,0.04858 l 0.920397,0.0076 0,-0.775071 z m -0.375991,-1.794207 c 0.03307,-0.03307 0.08542,-0.246008 0.116335,-0.473189 0.0501,-0.368231 0.0846,-1.0068168 0.234265,-4.3368531 l 0.03992,-0.8881019 -1.203674,0 -1.203675,0 0.03551,0.5005665 c 0.01953,0.2753117 0.07891,1.4306516 0.13195,2.5674221 0.104814,2.2462874 0.139246,2.6209234 0.248213,2.7007124 0.09505,0.0696 1.523977,0.0066 1.601163,-0.07056 z"
     id="path3424"
     inkscape:connector-curvature="0" />
  <path
     style="fill:#ffffff"
     d="m 41.570954,14.784141 c -0.209124,-0.05059 -0.414833,-0.281273 -0.458529,-0.514195 -0.106497,-0.567677 0.231752,-1.256845 2.704821,-5.5109583 2.43594,-4.1902461 3.938167,-6.6564299 4.295677,-7.0521503 0.315529,-0.3492527 0.50399,-0.3347552 0.86366,0.066438 0.366231,0.4085107 2.302443,3.6481558 5.043652,8.4389696 1.621919,2.834631 1.804721,3.2122 1.84285,3.806338 0.02939,0.457952 0.02694,0.466798 -0.17663,0.638091 l -0.206432,0.173702 -6.889946,-0.0075 c -3.78947,-0.0041 -6.948075,-0.02155 -7.019123,-0.03874 z m 8.105949,-2.020621 0,-0.775071 -1.162607,0 -1.162606,0 0.0076,0.532862 c 0.01155,0.805434 0.04683,0.912713 0.315793,0.960336 0.124065,0.02197 0.62522,0.04376 1.113676,0.04844 l 0.888102,0.0085 0,-0.775071 z m -0.373894,-1.796305 c 0.08822,-0.08822 0.175044,-0.9958674 0.242132,-2.5311735 0.03648,-0.8348159 0.08429,-1.8884278 0.106248,-2.3413598 l 0.03992,-0.8235127 -1.201281,0 -1.201282,0 0.03321,0.4682719 c 0.01826,0.2575496 0.07601,1.3838244 0.128332,2.5028329 0.113489,2.4273822 0.140257,2.6929452 0.28036,2.7813442 0.117032,0.07384 1.491416,0.02454 1.57236,-0.0564 z"
     id="path3426"
     inkscape:connector-curvature="0" />
  <path
     style="fill:#ffffff"
     d="m 41.506364,14.769316 c -0.213081,-0.08721 -0.364174,-0.301438 -0.399767,-0.566805 -0.05243,-0.390922 0.211703,-1.040735 0.998918,-2.457476 1.295088,-2.3307534 4.896009,-8.4386491 5.587339,-9.4772655 0.593849,-0.8921678 0.828699,-0.9921733 1.251355,-0.5328612 0.38843,0.4221186 1.955629,3.0332675 4.816693,8.0252125 1.887509,3.2932982 2.063065,3.6489292 2.102183,4.2584622 0.02939,0.457952 0.02694,0.466798 -0.17663,0.638091 l -0.206432,0.173702 -6.922241,-0.0041 c -3.807231,-0.0023 -6.980369,-0.02789 -7.051418,-0.05696 z m 8.170539,-2.005796 0,-0.775071 -1.171242,0 -1.171242,0 0.03333,0.629745 c 0.01833,0.34636 0.0538,0.679061 0.07881,0.739336 0.05387,0.129783 0.254424,0.153986 1.406831,0.169777 l 0.823513,0.01128 0,-0.775071 z m -0.761148,-1.736371 c 0.203041,-0.02538 0.38555,-0.06254 0.405577,-0.08256 0.06569,-0.06569 0.153477,-1.094111 0.222393,-2.6054294 0.03726,-0.8170538 0.08539,-1.8416005 0.106963,-2.2767705 l 0.03922,-0.7912181 -1.201856,0 -1.201855,0 0.03456,0.4359773 c 0.01901,0.2397875 0.07773,1.3515297 0.130495,2.4705382 0.117501,2.4918405 0.14415,2.7619395 0.280348,2.8415205 0.121064,0.07074 0.653292,0.07431 1.184157,0.0079 z"
     id="path3428"
     inkscape:connector-curvature="0" />
  <path
     style="fill:#ffffff"
     d="m 41.506364,14.769316 c -0.430699,-0.176282 -0.518168,-0.660925 -0.245854,-1.362221 0.297832,-0.767013 2.851976,-5.249902 5.316275,-9.3308269 1.367466,-2.2645483 1.627619,-2.615864 1.937073,-2.615864 0.212321,0 0.533137,0.3276664 0.923815,0.9435422 1.091162,1.7201365 5.584264,9.4864287 6.09927,10.5425397 0.237315,0.486656 0.300154,0.689512 0.326153,1.052882 0.03051,0.426469 0.02263,0.460081 -0.150269,0.640548 l -0.182472,0.19046 -6.947406,-0.0041 c -3.821073,-0.0023 -7.005536,-0.02789 -7.076585,-0.05696 z m 8.170539,-2.005796 0,-0.775071 -1.172363,0 -1.172364,0 0.03976,0.652663 c 0.02187,0.358965 0.07222,0.691777 0.1119,0.739584 0.08042,0.0969 0.396502,0.128355 1.466436,0.145947 l 0.726629,0.01195 0,-0.775071 z m -0.825778,-1.734196 c 0.238543,-0.02653 0.448513,-0.06304 0.466602,-0.08113 0.06106,-0.06106 0.161722,-1.2443807 0.227437,-2.6736236 0.03593,-0.7815297 0.0832,-1.7770113 0.10504,-2.2121813 l 0.03971,-0.7912181 -1.201969,0 -1.201968,0 0.0325,0.3390934 c 0.01787,0.1865015 0.06239,1.0075921 0.09892,1.8246459 0.0803,1.795987 0.184819,3.3599387 0.23292,3.4852887 0.0617,0.160793 0.432988,0.194534 1.200817,0.109127 z"
     id="path3430"
     inkscape:connector-curvature="0" />
  <path
     style="fill:#ffffff"
     d=""
     id="path3432"
     inkscape:connector-curvature="0" />
  <path
     style="fill:#ffffff"
     d=""
     id="path3434"
     inkscape:connector-curvature="0" />
  <path
     style="fill:#ffffff"
     d="m 41.506364,14.769316 c -0.22203,-0.09088 -0.36933,-0.310531 -0.401257,-0.598359 -0.05898,-0.531737 0.257117,-1.175018 2.40515,-4.8946593 1.416531,-2.4529344 3.425942,-5.8273487 4.019623,-6.7501712 0.76322,-1.1863579 0.964035,-1.2905933 1.448431,-0.7518279 0.35591,0.3958574 2.279208,3.605302 4.882365,8.1472953 1.724035,3.0081001 1.960297,3.4890461 2.00229,4.0759531 0.03066,0.428526 0.02289,0.461763 -0.150139,0.642369 l -0.182472,0.19046 -6.947406,-0.0041 c -3.821073,-0.0023 -7.005536,-0.02789 -7.076585,-0.05696 z m 8.170539,-2.005796 0,-0.775071 -1.17184,0 -1.171839,0 0.04547,0.66017 c 0.02501,0.363093 0.07522,0.69602 0.111586,0.739836 0.06974,0.08403 0.437663,0.117259 1.524585,0.137691 l 0.66204,0.01244 0,-0.775071 z M 49.27242,10.930679 c 0.111001,-0.104917 0.19229,-1.0185539 0.306525,-3.4451454 0.05388,-1.1444507 0.09796,-2.1108672 0.09796,-2.1475921 0,-0.043569 -0.416006,-0.066772 -1.197126,-0.066772 l -1.197125,0 0.03374,0.3067988 c 0.01856,0.1687394 0.06438,0.9752975 0.101833,1.7923513 0.08409,1.8345997 0.184838,3.3875759 0.229141,3.5321679 0.01836,0.05992 0.0974,0.122434 0.175651,0.138928 0.250569,0.05281 1.366576,-0.03245 1.449404,-0.110736 z"
     id="path3436"
     inkscape:connector-curvature="0" />
  <path
     style="fill:#ffffff"
     d="m 41.429846,14.725997 c -0.373599,-0.184238 -0.434007,-0.620556 -0.179521,-1.296663 0.291456,-0.774326 2.030389,-3.8428471 4.861155,-8.5779951 2.145969,-3.5896553 2.257145,-3.7144615 2.804863,-3.1487252 0.370117,0.3822933 1.582512,2.3811832 4.260342,7.0240793 2.442069,4.234127 2.637536,4.618567 2.686359,5.283478 0.03045,0.414761 0.02207,0.449917 -0.150217,0.629745 l -0.182472,0.19046 -6.947406,-0.0015 c -6.181762,-0.0013 -6.970075,-0.01265 -7.153103,-0.102908 z m 8.247057,-1.962477 0,-0.775071 -1.171456,0 -1.171455,0 0.04602,0.626958 c 0.02531,0.344828 0.07324,0.67781 0.1065,0.739962 0.06384,0.119286 0.277408,0.14213 1.592939,0.170388 l 0.597451,0.01283 0,-0.775071 z m -0.810696,-1.743909 c 0.431312,0 0.474452,-0.06828 0.5509,-0.871955 0.04945,-0.5198708 0.256711,-4.3760075 0.259497,-4.8280451 1.94e-4,-0.026643 -0.536851,-0.048442 -1.193367,-0.048442 l -1.193665,0 0.03034,0.2745042 c 0.01669,0.1509774 0.06032,0.9284703 0.09695,1.7277621 0.0846,1.8458834 0.189309,3.4884877 0.231352,3.6291517 0.03841,0.128506 0.271771,0.17861 0.665179,0.142818 0.155936,-0.01419 0.404701,-0.02579 0.552811,-0.02579 z"
     id="path3438"
     inkscape:connector-curvature="0" />
  <path
     style="fill:#ffffff"
     d="m 22.226478,22.257478 0,-7.040886 0.344891,0.228994 c 0.907681,0.602667 1.141949,0.624833 6.3078,0.596836 3.861915,-0.02093 4.261552,-0.03306 4.585836,-0.139229 1.216244,-0.398178 2.062698,-1.254713 2.432514,-2.461486 0.1105,-0.36058 0.11876,-0.704254 0.11876,-4.9410763 0,-4.2368226 -0.0083,-4.5804961 -0.11876,-4.9410765 C 35.522891,2.3370822 34.655182,1.469373 33.43271,1.0947454 33.07213,0.98424515 32.728456,0.97598483 28.491634,0.97598483 c -4.521239,0 -4.556768,0.001015 -5.008348,0.14309497 -0.250144,0.078702 -0.635257,0.2597255 -0.855808,0.4022741 l -0.401,0.259179 0,-3.3249368 0,-3.324937 26.061756,0 26.061756,0 0,17.0838529 0,17.083852 -26.061756,0 -26.061756,0 0,-7.040886 z m 33.338669,-7.40488 c 0.165701,-0.07659 0.33596,-0.20406 0.378354,-0.283274 0.122538,-0.228965 0.04434,-0.878484 -0.167594,-1.392079 C 55.671908,12.925219 54.177158,10.2978 52.45424,7.3385367 49.127592,1.6247249 48.934692,1.3312256 48.505998,1.3312256 c -0.441944,0 -0.647877,0.312391 -3.961477,6.0093934 -1.703802,2.92931 -3.198138,5.557623 -3.320749,5.840696 -0.298236,0.688543 -0.321213,1.235285 -0.06279,1.494187 0.345675,0.346321 0.257634,0.342434 7.450201,0.328882 l 6.652691,-0.01253 0.301276,-0.139251 z"
     id="path3440"
     inkscape:connector-curvature="0" />
  <path
     style="fill:#ffffff"
     d="m 22.226478,22.257478 0,-7.040886 0.341621,0.226823 c 0.489517,0.325022 1.017992,0.49161 1.757529,0.554019 0.819004,0.06911 6.490065,0.06929 7.944476,2.58e-4 0.861986,-0.04092 1.171342,-0.08057 1.439127,-0.184443 1.02104,-0.396061 1.836927,-1.264845 2.163954,-2.304251 0.142079,-0.4516 0.143094,-0.487129 0.143094,-5.0083673 0,-4.2277181 -0.0085,-4.5812705 -0.11816,-4.9410765 C 35.624891,2.6634348 34.990387,1.8613508 34.214907,1.4317889 33.449328,1.0077106 33.451527,1.0079409 29.783418,0.96807859 27.953928,0.94819706 25.817639,0.95946258 25.036109,0.99311312 23.473549,1.0603928 23.18858,1.1276124 22.522177,1.5861094 l -0.295699,0.2034466 0,-3.3294484 0,-3.3294485 26.061756,0 26.061756,0 0,17.0838529 0,17.083852 -26.061756,0 -26.061756,0 0,-7.040886 z M 55.50042,14.884479 c 0.386763,-0.175553 0.506228,-0.335934 0.506228,-0.679611 0,-0.757075 -0.01157,-0.779028 -4.162603,-7.9002713 -2.736642,-4.6948042 -2.927039,-4.9733711 -3.399228,-4.9733711 -0.257695,0 -0.672726,0.5322722 -1.496603,1.9193744 -1.123395,1.8913795 -1.172688,1.9795212 -1.0737,1.9199015 0.06974,-0.042007 0.06864,-0.026717 -0.0052,0.072122 -0.05154,0.068986 -0.127785,0.1550038 -0.169429,0.1911499 -0.06332,0.054963 -2.952924,4.994829 -4.085696,6.984628 -0.545422,0.958075 -0.736597,1.643903 -0.56963,2.043512 0.124806,0.298704 0.324154,0.422561 0.791277,0.491629 0.209559,0.03098 3.316597,0.05228 6.904529,0.04732 5.931877,-0.0082 6.544966,-0.01875 6.760061,-0.116385 z"
     id="path3442"
     inkscape:connector-curvature="0" />
  <path
     style="fill:#ffffff"
     d="m 22.226478,22.26285 0,-7.035515 0.367497,0.221295 c 0.713983,0.429939 0.9644,0.489465 2.345251,0.557488 1.521704,0.07496 7.902248,0.0072 8.364306,-0.08878 1.195422,-0.248413 2.338411,-1.386572 2.617904,-2.606843 C 36.023895,12.863156 36.02328,4.1425522 35.920758,3.690766 35.642104,2.4628303 34.462954,1.2988731 33.26808,1.0722699 32.78647,0.98093443 24.238063,0.9870686 23.74004,1.079107 23.355408,1.1501899 22.767208,1.4071124 22.415107,1.6578308 l -0.188629,0.1343159 0,-3.3307439 0,-3.3307437 26.061756,0 26.061756,0 0,17.0838529 0,17.083852 -26.061756,0 -26.061756,0 0,-7.035514 z m 33.268759,-7.376205 c 0.12725,-0.05786 0.297557,-0.188656 0.378459,-0.290652 0.129733,-0.16356 0.142882,-0.234998 0.111411,-0.605277 -0.02972,-0.349695 -0.104495,-0.554706 -0.447583,-1.227196 -0.421605,-0.826391 -2.979689,-5.2766671 -3.100091,-5.3932009 -0.08263,-0.07997 -0.245628,-0.3716167 1.371775,2.4543909 1.774881,3.101162 2.011475,3.581874 2.053758,4.172837 0.03066,0.428526 0.02289,0.461763 -0.150139,0.642369 l -0.182472,0.19046 -6.937645,0 c -6.170774,0 -6.961269,-0.01121 -7.151362,-0.101416 -0.485465,-0.230368 -0.466623,-0.808123 0.06094,-1.868556 0.375527,-0.754836 1.974048,-3.5689479 3.393743,-5.9745042 0.471721,-0.7992917 0.870155,-1.4750566 0.885409,-1.5016997 0.01525,-0.026643 0.01256,-0.048442 -0.006,-0.048442 -0.07426,0 -4.087584,6.9153518 -4.434799,7.6415998 -0.315037,0.658944 -0.410131,1.115958 -0.300886,1.446042 0.114959,0.347346 0.404271,0.492858 1.0802,0.543293 0.301954,0.02253 3.382861,0.03741 6.846459,0.03306 5.670574,-0.0071 6.320481,-0.01838 6.528815,-0.113108 l -2e-6,0 z m -5.818334,-2.123125 0,-0.775071 -1.162607,0 -1.162606,0 0.0033,0.24221 c 0.0055,0.403229 0.09655,1.106363 0.150217,1.160342 0.05346,0.05377 0.83947,0.117946 1.671112,0.136451 l 0.500564,0.01114 0,-0.775071 z m -0.387418,-1.873279 c 0.09605,-0.155414 0.194697,-1.3783702 0.289133,-3.5845111 0.01977,-0.4618131 0.05268,-1.1085128 0.07314,-1.4371105 l 0.0372,-0.5974504 -1.203855,0 -1.203856,0 0.03236,0.209915 c 0.0178,0.1154532 0.04942,0.587762 0.07027,1.049575 0.100401,2.2235781 0.237166,4.259637 0.293151,4.364246 0.07704,0.143947 0.262037,0.166707 0.986975,0.121425 0.387493,-0.0242 0.587421,-0.06451 0.62548,-0.126089 z M 52.37048,7.2249933 C 52.092267,6.7219924 51.529957,5.7878828 51.505378,5.7878828 c -0.01801,0 0.03162,0.1089944 0.110286,0.2422097 0.07866,0.1332153 0.273001,0.4674646 0.431863,0.7427762 0.158862,0.2753116 0.302545,0.5005666 0.319294,0.5005666 0.01675,0 0.0184,-0.021799 0.0037,-0.048442 l -3e-6,0 z M 51.319098,5.4164947 C 49.639266,2.5305263 49.184204,1.8099391 48.863901,1.5287083 48.329964,1.0599058 48.075878,1.3215691 46.578408,3.882359 c -0.391749,0.6699208 -0.71227,1.2476696 -0.71227,1.2838867 0,0.036217 0.343775,-0.4993956 0.763944,-1.1902511 1.353694,-2.2257831 1.570683,-2.5155905 1.883504,-2.5155905 0.33427,0 0.761232,0.5970119 2.321148,3.2456091 0.329525,0.5595042 0.613492,1.0172804 0.631039,1.0172804 0.01755,0 -0.04846,-0.1380595 -0.146675,-0.3067989 z"
     id="path3444"
     inkscape:connector-curvature="0" />
  <path
     style="fill:#ffffff"
     d="m 22.226478,22.251795 0,-7.046569 0.209915,0.138025 c 0.440932,0.289926 0.855864,0.46969 1.299787,0.563117 0.384138,0.08084 1.170719,0.096 4.755454,0.09161 2.460427,-0.003 4.459008,-0.03219 4.678697,-0.0683 1.257014,-0.206639 2.473216,-1.376492 2.74093,-2.636472 0.101515,-0.477778 0.101515,-9.1073647 0,-9.5851429 C 35.647964,2.4688694 34.460006,1.3086888 33.213979,1.07385 c -0.455424,-0.0858339 -8.878168,-0.0876435 -9.401043,-0.00202 -0.362777,0.059407 -1.123348,0.3868553 -1.441132,0.6204506 l -0.145326,0.1068255 0,-3.3342235 0,-3.3342236 26.061756,0 26.061756,0 0,17.0838529 0,17.083852 -26.061756,0 -26.061756,0 0,-7.046569 z M 55.43734,14.898534 c 0.130932,-0.03957 0.316051,-0.164627 0.411375,-0.277913 0.154869,-0.18405 0.169746,-0.244008 0.139768,-0.563266 -0.01845,-0.19651 -0.0966,-0.524231 -0.173653,-0.728268 -0.134219,-0.355399 -2.524171,-4.5981007 -2.665336,-4.7315724 -0.08716,-0.082406 -0.178269,-0.2475977 1.050921,1.9053824 1.379008,2.415395 1.621934,2.926976 1.663102,3.502353 0.03004,0.419826 0.02177,0.454658 -0.15069,0.634666 l -0.182472,0.19046 -6.937645,0 c -6.170774,0 -6.961269,-0.01121 -7.151362,-0.101416 -0.472839,-0.224377 -0.464268,-0.801436 0.02672,-1.798933 0.270509,-0.549567 1.212937,-2.25602 1.795243,-3.2506427 C 43.351702,9.5284069 43.4095,9.40488 43.391751,9.40488 c -0.05083,0 -1.886591,3.212248 -2.115194,3.701215 -0.241773,0.517136 -0.326688,1.178269 -0.185272,1.442505 0.158521,0.296199 0.405383,0.370752 1.383918,0.417948 1.516515,0.07314 12.689012,0.01452 12.962137,-0.06801 z m -5.760437,-2.135014 0,-0.775071 -1.162607,0 -1.162606,0 0.0028,0.209915 c 0.0047,0.35069 0.109322,1.15095 0.156641,1.198592 0.04404,0.04434 0.889489,0.107939 1.729758,0.130125 l 0.435978,0.01151 0,-0.775071 z m -0.392289,-1.865211 c 0.08579,-0.139097 0.124123,-0.554276 0.227352,-2.4622675 0.05286,-0.9769122 0.11315,-2.0886544 0.133988,-2.4705383 l 0.03789,-0.6943342 -1.199134,0 -1.199134,0 0.03202,0.2422096 c 0.01761,0.1332153 0.06188,0.8525779 0.09839,1.5985836 0.118857,2.4288181 0.2082,3.6793058 0.271499,3.8000478 0.05579,0.106427 0.137291,0.11627 0.802173,0.09688 0.540653,-0.01576 0.754859,-0.04556 0.794962,-0.110585 z M 43.704441,8.9204607 c 0.09938,-0.1776203 0.150705,-0.293881 0.114058,-0.2583569 -0.03665,0.035524 -0.147942,0.209915 -0.247321,0.3875354 -0.09938,0.1776204 -0.150706,0.293881 -0.114059,0.258357 0.03665,-0.035524 0.147943,-0.2099151 0.247322,-0.3875355 z m 0.452124,-0.7750708 c 0.09938,-0.1776204 0.150706,-0.293881 0.114058,-0.2583569 -0.03665,0.035524 -0.147942,0.209915 -0.247321,0.3875354 -0.09938,0.1776204 -0.150705,0.293881 -0.114058,0.2583569 0.03665,-0.035524 0.147942,-0.209915 0.247321,-0.3875354 z m 8.846683,0.1614731 c -0.05511,-0.1065722 -0.114733,-0.1937677 -0.132496,-0.1937677 -0.01776,0 0.0128,0.087195 0.06791,0.1937677 0.05511,0.1065723 0.114734,0.1937677 0.132496,0.1937677 0.01776,0 -0.0128,-0.087195 -0.06791,-0.1937677 z M 52.777186,7.9193276 c -0.03802,-0.071048 -0.08367,-0.1291785 -0.101429,-0.1291785 -0.01776,0 -0.0012,0.05813 0.03684,0.1291785 0.03802,0.071048 0.08367,0.1291785 0.101429,0.1291785 0.01776,0 0.0012,-0.05813 -0.03684,-0.1291785 z M 44.60869,7.3703191 c 0.09938,-0.1776204 0.150705,-0.293881 0.114058,-0.2583569 -0.03665,0.035524 -0.147942,0.209915 -0.247321,0.3875354 -0.09938,0.1776204 -0.150706,0.293881 -0.114058,0.2583569 0.03665,-0.035524 0.147942,-0.209915 0.247321,-0.3875354 z m 7.910139,0.096884 c -0.03802,-0.071048 -0.08367,-0.1291785 -0.101429,-0.1291785 -0.01776,0 -0.0012,0.05813 0.03684,0.1291785 0.03802,0.071048 0.08367,0.1291784 0.101429,0.1291784 0.01776,0 0.0012,-0.05813 -0.03684,-0.1291784 z M 52.325061,7.1442568 c -0.03802,-0.071048 -0.08367,-0.1291785 -0.101429,-0.1291785 -0.01776,0 -0.0012,0.05813 0.03684,0.1291785 0.03802,0.071048 0.08367,0.1291785 0.101429,0.1291785 0.01776,0 0.0012,-0.05813 -0.03684,-0.1291785 z M 45.188688,6.3853333 c 0.204541,-0.3463598 0.428482,-0.7242068 0.497645,-0.8396601 0.06916,-0.1154532 0.110909,-0.209915 0.09277,-0.209915 -0.02458,0 -0.687629,1.0907791 -0.991363,1.6308782 -0.01498,0.026643 -0.01458,0.048442 9.04e-4,0.048442 0.01548,0 0.195501,-0.2833853 0.400042,-0.629745 l 3e-6,0 z m 6.878016,0.3067988 c -0.03802,-0.071048 -0.08367,-0.1291784 -0.101429,-0.1291784 -0.01776,0 -0.0012,0.05813 0.03684,0.1291784 0.03802,0.071048 0.08367,0.1291785 0.101429,0.1291785 0.01776,0 0.0012,-0.05813 -0.03684,-0.1291785 z M 51.872937,6.369186 c -0.03802,-0.071048 -0.08367,-0.1291785 -0.101429,-0.1291785 -0.01776,0 -0.0012,0.05813 0.03684,0.1291785 0.03802,0.071048 0.08367,0.1291784 0.101429,0.1291784 0.01776,0 0.0012,-0.05813 -0.03684,-0.1291784 z M 51.646874,5.9816506 c -0.05511,-0.1065723 -0.114733,-0.1937678 -0.132495,-0.1937678 -0.01776,0 0.0128,0.087195 0.06791,0.1937678 0.05511,0.1065722 0.114734,0.1937677 0.132496,0.1937677 0.01776,0 -0.0128,-0.087195 -0.06791,-0.1937677 z M 51.420812,5.5941151 c -0.03802,-0.071048 -0.08367,-0.1291784 -0.101429,-0.1291784 -0.01776,0 -0.0012,0.05813 0.03684,0.1291784 0.03802,0.071048 0.08367,0.1291785 0.101429,0.1291785 0.01776,0 0.0012,-0.05813 -0.03684,-0.1291785 z M 51.127711,5.0935486 c -0.09691,-0.1687394 -0.206182,-0.3358641 -0.242829,-0.3713881 -0.03665,-0.035524 0.01496,0.080736 0.114689,0.2583569 0.09973,0.1776204 0.193422,0.344745 0.20821,0.3713881 0.01479,0.026643 0.04247,0.048442 0.06151,0.048442 0.01904,0 -0.04467,-0.1380595 -0.141577,-0.3067988 z m -4.28349,-1.4721612 c 1.387506,-2.2752596 1.581519,-2.4495185 2.100333,-1.8864791 0.23099,0.2506793 0.863812,1.2277581 1.568713,2.4220964 0.152006,0.2575495 0.28931,0.4682719 0.30512,0.4682719 0.01581,0 0.0166,-0.021799 0.0018,-0.048442 -0.01485,-0.026643 -0.239346,-0.4117564 -0.49889,-0.8558074 -1.019276,-1.7438661 -1.505275,-2.39052 -1.795763,-2.3893761 -0.174288,6.866e-4 -0.438807,0.207257 -0.694931,0.5426924 -0.319528,0.4184691 -2.014368,3.2676469 -1.94377,3.2676469 0.01657,0 0.447417,-0.6842713 0.957431,-1.5206031 z"
     id="path3446"
     inkscape:connector-curvature="0" />
  <rect
     style="fill:#ffffff"
     id="rect3448"
     width="5.4254956"
     height="10.98017"
     x="39.786968"
     y="5.3739376" />
  <rect
     style="fill:#ffffff"
     id="rect3450"
     width="8.0736542"
     height="5.0379605"
     x="44.243626"
     y="-0.82662886" />
  <rect
     style="fill:#ffffff"
     id="rect3452"
     width="8.9779034"
     height="10.592634"
     x="50.960907"
     y="5.7614732" />
  <rect
     style="fill:#ffffff"
     id="rect3454"
     width="5.7484417"
     height="3.8107648"
     x="50.185837"
     y="2.7257791" />
  <rect
     style="fill:#ffffff"
     id="rect3456"
     width="10.721813"
     height="2.5189803"
     x="43.985268"
     y="14.674788" />
  <rect
     style="fill:#ffffff"
     id="rect3458"
     width="4.2628894"
     height="5.9422097"
     x="42.24136"
     y="1.7569405" />
</svg>
